<?xml version="1.0" standalone="no"?><!DOCTYPE svg PUBLIC "-//W3C//DTD SVG 1.1//EN" "http://www.w3.org/Graphics/SVG/1.1/DTD/svg11.dtd"><svg t="1624863979706" class="icon" viewBox="0 0 1365 1024" version="1.1" xmlns="http://www.w3.org/2000/svg" p-id="2475" xmlns:xlink="http://www.w3.org/1999/xlink" width="266.6015625" height="200"><defs><style type="text/css"></style></defs><path d="M0 0m76.59316 0l1072.304243 0q76.59316 0 76.59316 76.59316l0 0q0 76.59316-76.59316 76.59316l-1072.304243 0q-76.59316 0-76.59316-76.59316l0 0q0-76.59316 76.59316-76.59316Z" p-id="2476" fill="#ffffff"></path><path d="M0 382.965801m76.59316 0l1072.304243 0q76.59316 0 76.59316 76.59316l0 0q0 76.59316-76.59316 76.59316l-1072.304243 0q-76.59316 0-76.59316-76.59316l0 0q0-76.59316 76.59316-76.59316Z" p-id="2477" fill="#ffffff"></path><path d="M0 765.931602m76.59316 0l1072.304243 0q76.59316 0 76.59316 76.59316l0 0q0 76.59316-76.59316 76.59316l-1072.304243 0q-76.59316 0-76.59316-76.59316l0 0q0-76.59316 76.59316-76.59316Z" p-id="2478" fill="#ffffff"></path></svg>